<svg width="32" height="32" viewBox="0 0 32 32" fill="none" xmlns="http://www.w3.org/2000/svg">
<path d="M3.33331 16.0002C3.33331 10.029 3.33331 7.04348 5.1883 5.18848C7.0433 3.3335 10.0289 3.3335 16 3.3335C21.971 3.3335 24.9566 3.3335 26.8117 5.18848C28.6666 7.04348 28.6666 10.029 28.6666 16.0002C28.6666 21.9712 28.6666 24.9568 26.8117 26.8119C24.9566 28.6668 21.971 28.6668 16 28.6668C10.0289 28.6668 7.0433 28.6668 5.1883 26.8119C3.33331 24.9568 3.33331 21.9712 3.33331 16.0002Z" stroke="#8290A6" stroke-width="1.5" stroke-linejoin="round"/>
<path d="M22.5687 10.7017H18.6422C17.2504 10.7017 16.1192 11.8245 16.109 13.2162L15.9952 28.5689M13.4427 18.6688H19.8463" stroke="#8290A6" stroke-width="1.5" stroke-linecap="round" stroke-linejoin="round"/>
</svg>
