<svg width="32" height="32" viewBox="0 0 32 32" fill="none" xmlns="http://www.w3.org/2000/svg">
<path d="M13.3333 17.6388C13.5221 17.948 13.7462 18.2407 14.0056 18.5106C15.6156 20.1862 18.0696 20.4482 19.9434 19.2964C20.2906 19.083 20.6178 18.8211 20.9162 18.5106L25.2354 14.0154C27.1437 12.0293 27.1437 8.80918 25.2354 6.82307C23.327 4.83696 20.233 4.83698 18.3246 6.82307L17.3733 7.8132" stroke="#8290A6" stroke-width="1.5" stroke-linecap="round"/>
<path d="M14.627 24.1867L13.6753 25.1771C11.767 27.1632 8.67293 27.1632 6.76458 25.1771C4.85622 23.1909 4.85622 19.9709 6.76458 17.9848L11.0838 13.4896C12.9922 11.5035 16.0862 11.5035 17.9945 13.4896C18.2538 13.7593 18.4778 14.052 18.6666 14.3611" stroke="#8290A6" stroke-width="1.5" stroke-linecap="round"/>
</svg>
