<svg xmlns="http://www.w3.org/2000/svg" viewBox="0 0 390.21 128.61"><defs><style>.cls-1{fill:#01273f;}.cls-2,.cls-3{fill:#013759;}.cls-3{fill-rule:evenodd;}.cls-4{fill:#1c2b3f;}</style></defs><g id="Camada_2" data-name="Camada 2"><g id="Layer_1" data-name="Layer 1"><path class="cls-1" d="M121.65,42.64,135.3,29.45a5.83,5.83,0,0,0-.74-9c-5.91-4.07-15-10.79-21.23-17.67a5.83,5.83,0,0,0-9.63,1.58c-6.16,13.91-17.69,41.57-24,67A33.25,33.25,0,0,0,81.5,92.51c.11.23.21.47.31.71q1.93,4.44,3.83,9.08a5.83,5.83,0,0,0,9.63,1.81,150.77,150.77,0,0,1,39.91-30.42,5.84,5.84,0,0,0,1.22-9.56L121.83,51.2A5.84,5.84,0,0,1,121.65,42.64Zm-33.45,42a4.41,4.41,0,1,1,4.4-4.41A4.4,4.4,0,0,1,88.2,84.61Z"/><path class="cls-2" d="M71.12,126.13c-14.44-14.89-34.36-31.36-59.47-42.8A8,8,0,0,1,8.32,71.5L19,55.76a8,8,0,0,0-2.09-11.14L3.48,35.36a8,8,0,0,1-1-12.44A102.88,102.88,0,0,0,14.18,9.75a8,8,0,0,1,12.91,0C37.21,23.39,56.73,52.46,75.54,95.93q4.39,10.14,8.68,21.33c.06.14.11.27.16.41C87.49,125.81,77.19,132.38,71.12,126.13Z"/><path class="cls-3" d="M49.49.81c-7.09,1.4-1.86,19,3.08,20.78S62,15.41,62,15.41s.37,3.84,3.32,3.86a3.57,3.57,0,0,0,3.56-3.33s4.26,7.9,8.81,6.72c3.81-1,4.93-5.65,5.34-10.33S82.85,1.38,79.56.21c-4.75-1.69-10.8,7.54-10.8,7.54S67.26,3.6,64,4.43c-1.83.47-2.07,3.32-2.07,3.32S54.35-.16,49.49.81Z"/><path class="cls-4" d="M171.57,83.29V43.84H155.79V34.47h42.28v9.37H182.29V83.29Z"/><path class="cls-4" d="M194.23,66.77a15.9,15.9,0,0,1,5.53-12.54,19.72,19.72,0,0,1,13.49-4.86,21.6,21.6,0,0,1,9.84,2.23v9.51A17.43,17.43,0,0,0,213.72,58a9.22,9.22,0,0,0-6.64,2.47,8.22,8.22,0,0,0-2.6,6.23,8.09,8.09,0,0,0,2.63,6.21,9.56,9.56,0,0,0,6.75,2.43A15.73,15.73,0,0,0,223.57,72v9.44A22.18,22.18,0,0,1,212.71,84a18.62,18.62,0,0,1-13.25-4.89A16.21,16.21,0,0,1,194.23,66.77Z"/><path class="cls-4" d="M230.78,83.29V31.77H241V53.08l.14.07a15.35,15.35,0,0,1,10.11-3.78,11.5,11.5,0,0,1,8.7,3.37q2.91,3.1,2.9,9.85v20.7H252.63v-19c0-2.21-.38-3.76-1.14-4.66A4.38,4.38,0,0,0,248,58.21,11.48,11.48,0,0,0,241,61V83.29Z"/><path class="cls-4" d="M272.19,43.74a5.78,5.78,0,0,1,0-8.29,5.94,5.94,0,0,1,8.36,0,5.78,5.78,0,0,1,0,8.29,5.94,5.94,0,0,1-8.36,0Zm-.95,39.55V50.11H281.5V83.29Z"/><path class="cls-4" d="M290,83.29V31.77h10.25V83.29Z"/><path class="cls-4" d="M308.74,83.29V31.77H319V83.29Z"/><path class="cls-4" d="M336.93,84a13.35,13.35,0,0,1-7.69-2.16,8.85,8.85,0,0,1-3.91-7.76,9.11,9.11,0,0,1,4.05-8c2.29-1.58,5.39-2.36,9.3-2.36a26.39,26.39,0,0,1,5.74.6V63.06a4.47,4.47,0,0,0-1.28-3.5q-1.56-1.43-5.13-1.42a20.27,20.27,0,0,0-9.71,2.63V51.93a25.66,25.66,0,0,1,11.6-2.56q7.22,0,11.06,3.17t3.71,9.17V73c0,1.75.67,2.63,2,2.63a3.76,3.76,0,0,0,1.69-.41v7.69a10.48,10.48,0,0,1-4.93,1,9.51,9.51,0,0,1-7.14-2.63h-.14A15.42,15.42,0,0,1,336.93,84Zm2.83-7.56a8.88,8.88,0,0,0,4.66-1.35V70.28a12,12,0,0,0-3.65-.47c-3.5,0-5.26,1.12-5.26,3.37a2.85,2.85,0,0,0,1.22,2.43A5.07,5.07,0,0,0,339.76,76.48Z"/><path class="cls-4" d="M365.39,82.25a6,6,0,0,1,0-8.57,6.29,6.29,0,0,1,8.77,0,6,6,0,0,1,0,8.57,6.27,6.27,0,0,1-8.77,0Z"/><path class="cls-4" d="M378,38.9V33.49h-2V31.77h5.9v1.72h-2V38.9Zm10.34,0V36.49c0-.54,0-1.11.05-1.7l-.05,0q-.35.58-.9,1.35l-.91,1.25-.91-1.25a15.32,15.32,0,0,1-.91-1.35l-.05,0c0,.59.05,1.16.05,1.7V38.9h-1.85V31.77h1.77l1.92,2.63,1.89-2.63h1.8V38.9Z"/></g></g></svg>