<svg xmlns="http://www.w3.org/2000/svg" xmlns:xlink="http://www.w3.org/1999/xlink" version="1.1" x="0px" y="0px" viewBox="0 0 64 80" style="enable-background:new 0 0 64 64;" xml:space="preserve"><g><g><g><g><path d="M46.82,63.74H17.18c-0.29,0-0.57-0.13-0.75-0.36c-0.18-0.22-0.26-0.52-0.2-0.81l0.34-1.72      c1.47-7.33,7.95-12.65,15.43-12.65s13.96,5.32,15.43,12.65l0.34,1.72c0.06,0.29-0.02,0.58-0.2,0.81      C47.39,63.61,47.11,63.74,46.82,63.74z M18.36,61.8h27.28l-0.11-0.56C44.24,54.81,38.55,50.15,32,50.15s-12.24,4.66-13.53,11.09      L18.36,61.8z"/></g><g><path d="M32,43.36c-4.23,0-7.68-3.44-7.68-7.68v-2.55c0-4.23,3.45-7.68,7.68-7.68s7.68,3.44,7.68,7.68v2.55      C39.68,39.91,36.23,43.36,32,43.36z M32,27.39c-3.17,0-5.74,2.57-5.74,5.74v2.55c0,3.17,2.58,5.74,5.74,5.74      s5.74-2.57,5.74-5.74v-2.55C37.74,29.96,35.17,27.39,32,27.39z"/></g></g><g><g><g><path d="M14.22,59.68H0.97c-0.29,0-0.57-0.13-0.75-0.36c-0.18-0.22-0.26-0.52-0.2-0.8l0.27-1.35       c1.16-5.85,6.34-10.1,12.32-10.1c2.38,0,4.69,0.67,6.69,1.94c0.45,0.29,0.58,0.89,0.3,1.34c-0.29,0.45-0.89,0.58-1.34,0.3       c-1.68-1.07-3.64-1.64-5.65-1.64c-5.05,0-9.43,3.59-10.42,8.54l-0.04,0.19h12.07c0.54,0,0.97,0.43,0.97,0.97       S14.76,59.68,14.22,59.68z"/></g><g><path d="M12.6,43.68c-3.44,0-6.24-2.8-6.24-6.24v-2c0-3.44,2.8-6.24,6.24-6.24s6.24,2.8,6.24,6.24v2       C18.84,40.89,16.04,43.68,12.6,43.68z M12.6,31.15c-2.37,0-4.3,1.93-4.3,4.3v2c0,2.37,1.93,4.3,4.3,4.3       c2.37,0,4.3-1.93,4.3-4.3v-2C16.9,33.08,14.97,31.15,12.6,31.15z"/></g></g><g><g><path d="M63.03,59.68H49.78c-0.54,0-0.97-0.43-0.97-0.97s0.43-0.97,0.97-0.97h12.07l-0.04-0.19       c-0.98-4.95-5.37-8.54-10.42-8.54c-2.01,0-3.96,0.57-5.65,1.64c-0.45,0.29-1.05,0.15-1.34-0.3c-0.29-0.45-0.15-1.05,0.3-1.34       c2-1.27,4.31-1.94,6.69-1.94c5.97,0,11.15,4.25,12.32,10.1l0.27,1.35c0.06,0.29-0.02,0.58-0.2,0.8       C63.6,59.55,63.32,59.68,63.03,59.68z"/></g><g><path d="M51.4,43.68c-3.44,0-6.24-2.8-6.24-6.24v-2c0-3.44,2.8-6.24,6.24-6.24s6.24,2.8,6.24,6.24v2       C57.64,40.89,54.84,43.68,51.4,43.68z M51.4,31.15c-2.37,0-4.3,1.93-4.3,4.3v2c0,2.37,1.93,4.3,4.3,4.3       c2.37,0,4.3-1.93,4.3-4.3v-2C55.7,33.08,53.77,31.15,51.4,31.15z"/></g></g></g></g><g><g><path d="M37.16,18.09c-0.2,0-0.4-0.06-0.57-0.19L32,14.57l-4.59,3.34c-0.34,0.25-0.8,0.25-1.14,0c-0.34-0.25-0.48-0.68-0.35-1.08     l1.75-5.4l-4.59-3.34C22.73,7.84,22.59,7.4,22.72,7c0.13-0.4,0.5-0.67,0.92-0.67h5.68l1.75-5.4c0.13-0.4,0.5-0.67,0.92-0.67     c0.42,0,0.79,0.27,0.92,0.67l1.75,5.4h5.68c0.42,0,0.79,0.27,0.92,0.67c0.13,0.4-0.01,0.84-0.35,1.08l-4.59,3.34l1.75,5.4     c0.13,0.4-0.01,0.84-0.35,1.08C37.56,18.03,37.36,18.09,37.16,18.09z M32,12.4c0.2,0,0.4,0.06,0.57,0.19l2.75,2l-1.05-3.23     c-0.13-0.4,0.01-0.84,0.35-1.08l2.75-2h-3.4c-0.42,0-0.79-0.27-0.92-0.67L32,4.37L30.95,7.6c-0.13,0.4-0.5,0.67-0.92,0.67h-3.4     l2.75,2c0.34,0.25,0.48,0.68,0.35,1.08l-1.05,3.23l2.75-2C31.6,12.46,31.8,12.4,32,12.4z"/></g><g><g><path d="M8.56,18.34c-0.2,0-0.4-0.06-0.57-0.19c-0.34-0.25-0.48-0.68-0.35-1.08l1.33-4.08L5.5,10.47      c-0.34-0.25-0.48-0.68-0.35-1.08c0.13-0.4,0.5-0.67,0.92-0.67h4.29l1.33-4.08c0.13-0.4,0.5-0.67,0.92-0.67      c0.42,0,0.79,0.27,0.92,0.67l1.33,4.08h4.29c0.42,0,0.79,0.27,0.92,0.67s-0.01,0.84-0.35,1.08l-3.47,2.52l1.33,4.08      c0.13,0.4-0.01,0.84-0.35,1.08c-0.34,0.25-0.8,0.25-1.14,0l-3.47-2.52l-3.47,2.52C8.96,18.28,8.76,18.34,8.56,18.34z       M12.6,13.47c0.2,0,0.4,0.06,0.57,0.18l1.63,1.18l-0.62-1.91c-0.13-0.4,0.01-0.84,0.35-1.09l1.63-1.18h-2.01      c-0.42,0-0.79-0.27-0.92-0.67L12.6,8.08l-0.62,1.91c-0.13,0.4-0.5,0.67-0.92,0.67H9.05l1.62,1.18c0.34,0.25,0.48,0.68,0.35,1.08      l-0.62,1.91l1.63-1.18C12.2,13.53,12.4,13.47,12.6,13.47z"/></g><g><path d="M55.44,18.34c-0.2,0-0.4-0.06-0.57-0.19l-3.47-2.52l-3.47,2.52c-0.34,0.25-0.8,0.25-1.14,0      c-0.34-0.25-0.48-0.68-0.35-1.08l1.33-4.08l-3.47-2.52c-0.34-0.25-0.48-0.68-0.35-1.08s0.5-0.67,0.92-0.67h4.29l1.33-4.08      c0.13-0.4,0.5-0.67,0.92-0.67l0,0c0.42,0,0.79,0.27,0.92,0.67l1.32,4.08h4.29c0.42,0,0.79,0.27,0.92,0.67      c0.13,0.4-0.01,0.84-0.35,1.08l-3.47,2.52l1.33,4.08c0.13,0.4-0.01,0.84-0.35,1.08C55.84,18.28,55.64,18.34,55.44,18.34z       M47.85,10.66l1.63,1.18c0.34,0.25,0.48,0.69,0.35,1.09l-0.62,1.91l1.63-1.18c0.34-0.25,0.8-0.25,1.14,0l1.63,1.18l-0.62-1.91      c-0.13-0.4,0.01-0.84,0.35-1.08l1.62-1.18h-2.01c-0.42,0-0.79-0.27-0.92-0.67L51.4,8.08l-0.62,1.91      c-0.13,0.4-0.5,0.67-0.92,0.67H47.85z"/></g></g></g></g></svg>