<svg xmlns="http://www.w3.org/2000/svg" version="1.1" viewBox="-5.0 -10.0 110.0 135.0">
 <path d="m56.25 46.875h-3.125v-25h3.125c5.168 0 9.375 4.207 9.375 9.375 0 1.7266 1.3984 3.125 3.125 3.125s3.125-1.3984 3.125-3.125c0-8.6133-7.0117-15.625-15.625-15.625h-3.125v-6.25c0-1.7266-1.3984-3.125-3.125-3.125s-3.125 1.3984-3.125 3.125v6.25h-3.125c-8.6133 0-15.625 7.0117-15.625 15.625v6.25c0 8.6133 7.0117 15.625 15.625 15.625h3.125v25h-3.125c-5.168 0-9.375-4.207-9.375-9.375 0-1.7266-1.3984-3.125-3.125-3.125s-3.125 1.3984-3.125 3.125c0 8.6133 7.0117 15.625 15.625 15.625h3.125v6.25c0 1.7266 1.3984 3.125 3.125 3.125s3.125-1.3984 3.125-3.125v-6.25h3.125c8.6133 0 15.625-7.0117 15.625-15.625v-6.25c0-8.6133-7.0117-15.625-15.625-15.625zm-9.375 0h-3.125c-5.168 0-9.375-4.207-9.375-9.375v-6.25c0-5.168 4.207-9.375 9.375-9.375h3.125zm18.75 21.875c0 5.168-4.207 9.375-9.375 9.375h-3.125v-25h3.125c5.168 0 9.375 4.207 9.375 9.375z"/>
</svg>