<svg xmlns="http://www.w3.org/2000/svg" version="1.1" viewBox="-5.0 -10.0 110.0 135.0">
 <g>
  <path d="m83.719 45.438-33.719 33.75-33.719-33.75c-1.2188-1.2188-3.1875-1.2188-4.4062 0s-1.2188 3.1875 0 4.4062l35.938 35.938c0.625 0.625 1.4062 0.90625 2.2188 0.90625s1.5938-0.3125 2.2188-0.90625l35.938-35.938c1.2188-1.2188 1.2188-3.1875 0-4.4062s-3.25-1.2188-4.4688 0z"/>
  <path d="m47.781 54.562c0.625 0.625 1.4062 0.90625 2.2188 0.90625s1.5938-0.3125 2.2188-0.90625l35.938-35.938c1.2188-1.2188 1.2188-3.1875 0-4.4062s-3.1875-1.2188-4.4062 0l-33.75 33.719-33.719-33.75c-1.2188-1.2188-3.1875-1.2188-4.4062 0s-1.2188 3.1875 0 4.4062z"/>
 </g>
</svg>