<svg xmlns="http://www.w3.org/2000/svg" version="1.1" viewBox="-5.0 -10.0 110.0 135.0">
 <path d="m50 56.25c-10.34 0-18.75-8.4102-18.75-18.75 0-1.2578 0.125-2.5156 0.375-3.7461 0.33984-1.6953 2-2.7852 3.6836-2.4453 1.6914 0.34375 2.7852 1.9922 2.4414 3.6836-0.16797 0.82422-0.25 1.668-0.25 2.5078 0 6.8945 5.6094 12.5 12.5 12.5s12.5-5.6055 12.5-12.5-5.6094-12.5-12.5-12.5c-2.7305 0-5.3242 0.86328-7.5 2.5-1.375 1.0352-3.3398 0.76172-4.375-0.62109-1.0391-1.3789-0.76172-3.3398 0.62109-4.375 3.2656-2.457 7.1562-3.7539 11.254-3.7539 10.34 0 18.75 8.4102 18.75 18.75s-8.4102 18.75-18.75 18.75zm34.375 21.875c0 10.148-17.711 15.625-34.375 15.625s-34.375-5.4766-34.375-15.625c0-6.5195 7.3125-11.098 16.953-13.547-7.0508-8.4336-13.828-18.707-13.828-27.078 0-17.23 14.02-31.25 31.25-31.25s31.25 14.02 31.25 31.25c0 8.375-6.7812 18.652-13.836 27.086 9.6406 2.4492 16.961 7.0195 16.961 13.539zm-34.375-4.2461c8.5312-8.0352 25-25.75 25-36.379 0-13.785-11.215-25-25-25s-25 11.215-25 25c0 10.629 16.469 28.344 25 36.379zm28.125 4.2461c0-2.7578-5.7852-6.3711-15.41-8.1953-5.0781 5.5-9.5078 9.5195-10.637 10.527-0.58984 0.52734-1.3359 0.79297-2.0781 0.79297-0.74609 0-1.4883-0.26562-2.0781-0.79297-1.1289-1.0078-5.5703-5.0391-10.66-10.551-9.6445 1.8164-15.387 5.457-15.387 8.2188 0 3.8242 10.957 9.375 28.125 9.375s28.125-5.5508 28.125-9.375z"/>
</svg>