<svg width="32" height="32" viewBox="0 0 32 32" fill="none" xmlns="http://www.w3.org/2000/svg">
<path d="M3.33331 16.0002C3.33331 10.029 3.33331 7.04348 5.1883 5.18848C7.0433 3.3335 10.0289 3.3335 16 3.3335C21.971 3.3335 24.9566 3.3335 26.8117 5.18848C28.6666 7.04348 28.6666 10.029 28.6666 16.0002C28.6666 21.9712 28.6666 24.9568 26.8117 26.8119C24.9566 28.6668 21.971 28.6668 16 28.6668C10.0289 28.6668 7.0433 28.6668 5.1883 26.8119C3.33331 24.9568 3.33331 21.9712 3.33331 16.0002Z" stroke="#8290A6" stroke-width="1.5" stroke-linejoin="round"/>
<path d="M14.0478 14.6765C12.9544 14.522 10.4622 14.7777 9.24013 17.0374C8.01805 19.297 9.24971 21.6489 10.0183 22.5424C10.7773 23.3782 13.1897 24.9612 15.7485 23.4157C16.3828 23.0326 17.1729 22.7469 18.0693 19.7536L17.965 7.9751C17.7921 9.27208 19.2248 12.3142 23.304 12.6741" stroke="#8290A6" stroke-width="1.5" stroke-linecap="round" stroke-linejoin="round"/>
</svg>
