<svg width="32" height="32" viewBox="0 0 32 32" fill="none" xmlns="http://www.w3.org/2000/svg">
<path d="M16 29.3332C23.3637 29.3332 29.3333 23.3636 29.3333 15.9998C29.3333 8.63604 23.3637 2.6665 16 2.6665C8.63619 2.6665 2.66666 8.63604 2.66666 15.9998C2.66666 17.8384 3.03875 19.59 3.71175 21.1834C4.0837 22.064 4.26967 22.5044 4.2927 22.8372C4.31572 23.17 4.21778 23.536 4.02188 24.2681L2.66666 29.3332L7.73168 27.978C8.46383 27.7821 8.82991 27.6841 9.16268 27.7072C9.49547 27.7301 9.93579 27.9161 10.8165 28.2881C12.4099 28.961 14.1615 29.3332 16 29.3332Z" stroke="#8290A6" stroke-width="1.5" stroke-linejoin="round"/>
<path d="M11.4509 16.5032L12.6121 15.061C13.1016 14.4531 13.7065 13.8872 13.754 13.0778C13.7659 12.8734 13.6221 11.9556 13.3344 10.12C13.2214 9.39858 12.5478 9.3335 11.9644 9.3335C11.2042 9.3335 10.8241 9.3335 10.4466 9.50591C9.96953 9.72383 9.47973 10.3366 9.37224 10.8499C9.2872 11.2561 9.3504 11.536 9.4768 12.0957C10.0137 14.4732 11.2731 16.8212 13.226 18.7742C15.1789 20.7271 17.5269 21.9866 19.9044 22.5234C20.4641 22.6498 20.744 22.713 21.1503 22.6279C21.6636 22.5204 22.2763 22.0307 22.4943 21.5535C22.6667 21.176 22.6667 20.796 22.6667 20.0358C22.6667 19.4523 22.6016 18.7788 21.8801 18.6658C20.0445 18.378 19.1268 18.2343 18.9223 18.2462C18.1129 18.2936 17.5471 18.8986 16.9392 19.388L15.4969 20.5492" stroke="#8290A6" stroke-width="1.5"/>
</svg>
