<svg xmlns="http://www.w3.org/2000/svg" viewBox="0 0 70.3 70.3"><defs><style>.cls-1{fill:#04d8d8;}.cls-2,.cls-3{fill:#fff;}.cls-3{fill-rule:evenodd;}</style></defs><g id="Camada_2" data-name="Camada 2"><g id="Layer_1" data-name="Layer 1"><rect class="cls-1" width="70.3" height="70.3" rx="19.84"/><path class="cls-2" d="M53.14,27.72l4.68-4.52a2,2,0,0,0-.25-3.08,45.23,45.23,0,0,1-7.28-6.06,2,2,0,0,0-3.3.54,151.87,151.87,0,0,0-8.22,23,11.32,11.32,0,0,0,.61,7.26l.1.24q.66,1.53,1.32,3.12a2,2,0,0,0,3.3.62A51.53,51.53,0,0,1,57.78,38.37a2,2,0,0,0,.42-3.28l-5-4.43A2,2,0,0,1,53.14,27.72ZM41.67,42.11a1.51,1.51,0,1,1,1.51-1.51A1.5,1.5,0,0,1,41.67,42.11Z"/><path class="cls-2" d="M35.82,56.35a68.24,68.24,0,0,0-20.4-14.68,2.75,2.75,0,0,1-1.14-4.05L18,32.22a2.76,2.76,0,0,0-.72-3.82l-4.62-3.17A2.76,2.76,0,0,1,12.29,21a35.29,35.29,0,0,0,4-4.51,2.76,2.76,0,0,1,4.43,0A151.07,151.07,0,0,1,37.33,46q1.52,3.48,3,7.32l0,.14A2.75,2.75,0,0,1,35.82,56.35Z"/><path class="cls-3" d="M28.4,13.38c-2.43.48-.64,6.5,1.06,7.13s3.21-2.12,3.21-2.12.13,1.31,1.14,1.32A1.22,1.22,0,0,0,35,18.57s1.46,2.71,3,2.3c1.31-.34,1.69-1.94,1.83-3.54s0-3.76-1.17-4.16c-1.63-.58-3.7,2.59-3.7,2.59s-.52-1.42-1.64-1.14c-.63.16-.71,1.14-.71,1.14S30.07,13.05,28.4,13.38Z"/></g></g></svg>